HIERARCHY
ROOT Hips
{
	OFFSET -0.001795 -0.223333 0.028219
	CHANNELS 6 Xposition Yposition Zposition Zrotation Yrotation Xrotation 
	JOINT LeftUpLeg
	{
		OFFSET 0.069520 -0.091406 -0.006815
		CHANNELS 3 Zrotation Yrotation Xrotation
		JOINT LeftLeg
		{
			OFFSET 0.034277 -0.375199 -0.004496
			CHANNELS 3 Zrotation Yrotation Xrotation
			JOINT LeftFoot
			{
				OFFSET -0.013596 -0.397961 -0.043693
				CHANNELS 3 Zrotation Yrotation Xrotation
				JOINT LeftToe
				{
					OFFSET 0.026358 -0.055791 0.119288
					CHANNELS 3 Zrotation Yrotation Xrotation
					End Site
					{
						OFFSET 0.000000 0.000000 0.000000
					}
				}
			}
		}
	}
	JOINT RightUpLeg
	{
		OFFSET -0.067670 -0.090522 -0.004320
		CHANNELS 3 Zrotation Yrotation Xrotation
		JOINT RightLeg
		{
			OFFSET -0.038290 -0.382569 -0.008850
			CHANNELS 3 Zrotation Yrotation Xrotation
			JOINT RightFoot
			{
				OFFSET 0.015774 -0.398415 -0.042312
				CHANNELS 3 Zrotation Yrotation Xrotation
				JOINT RightToe
				{
					OFFSET -0.025372 -0.048144 0.123348
					CHANNELS 3 Zrotation Yrotation Xrotation
					End Site
					{
						OFFSET 0.000000 0.000000 0.000000
					}
				}
			}
		}
	}
	JOINT Spine
	{
		OFFSET -0.002533 0.108963 -0.026696
		CHANNELS 3 Zrotation Yrotation Xrotation
		JOINT Spine1
		{
			OFFSET 0.005487 0.135180 0.001092
			CHANNELS 3 Zrotation Yrotation Xrotation
			JOINT Spine2
			{
				OFFSET 0.001457 0.052922 0.025425
				CHANNELS 3 Zrotation Yrotation Xrotation
				JOINT Neck
				{
					OFFSET -0.002778 0.213870 -0.042857
					CHANNELS 3 Zrotation Yrotation Xrotation
					JOINT Head
					{
						OFFSET 0.005152 0.064970 0.051349
						CHANNELS 3 Zrotation Yrotation Xrotation
						End Site
						{
							OFFSET 0.000000 0.000000 0.000000
						}
					}
				}
				JOINT LeftShoulder
				{
					OFFSET 0.078845 0.121749 -0.034090
					CHANNELS 3 Zrotation Yrotation Xrotation
					JOINT LeftArm
					{
						OFFSET 0.090977 0.030469 -0.008868
						CHANNELS 3 Zrotation Yrotation Xrotation
						JOINT LeftForeArm
						{
							OFFSET 0.259612 -0.012772 -0.027456
							CHANNELS 3 Zrotation Yrotation Xrotation
							JOINT LeftHand
							{
								OFFSET 0.249234 0.008986 -0.001171
								CHANNELS 3 Zrotation Yrotation Xrotation
								End Site
								{
									OFFSET 0.000000 0.000000 0.000000
								}
							}
						}
					}
				}
				JOINT RightShoulder
				{
					OFFSET -0.081759 0.118833 -0.038615
					CHANNELS 3 Zrotation Yrotation Xrotation
					JOINT RightArm
					{
						OFFSET -0.096012 0.032551 -0.009143
						CHANNELS 3 Zrotation Yrotation Xrotation
						JOINT RightForeArm
						{
							OFFSET -0.253742 -0.013329 -0.021401
							CHANNELS 3 Zrotation Yrotation Xrotation
							JOINT RightHand
							{
								OFFSET -0.255298 0.007772 -0.005559
								CHANNELS 3 Zrotation Yrotation Xrotation
								End Site
								{
									OFFSET 0.000000 0.000000 0.000000
								}
							}
						}
					}
				}
			}
		}
	}
}
MOTION
Frames: 18
Frame Time: 0.050000
0.136550 0.947851 0.282694 -1.263867 21.238681 6.681944 -1.759686 -0.845790 -8.995486 2.174685 -0.002925 -3.276452 -6.341383 -5.086561 9.374964 0.000000 0.000000 0.000000 1.588964 0.922301 -8.665786 -3.608706 0.539898 1.000647 2.510601 3.685990 9.523483 0.000000 0.000000 0.000000 1.994508 -0.049935 -0.479896 -8.676209 3.651845 3.382472 3.817975 -0.383330 1.262490 -2.519266 2.764400 -7.395766 0.000000 0.000000 0.000000 -20.616502 -20.837219 6.795973 -44.911630 -14.177152 0.793805 -75.027239 -62.064174 49.592279 0.000000 0.000000 0.000000 4.245891 27.594990 11.910580 20.768872 25.677544 1.381144 56.037844 73.211810 48.753671 0.000000 0.000000 0.000000 
0.135566 0.947847 0.281262 -1.012957 21.049048 6.787532 -2.278096 -0.863291 -9.026405 2.355589 -0.013028 -3.241334 -6.131246 -4.722892 9.372852 0.000000 0.000000 0.000000 1.535398 0.922792 -8.711286 -3.673424 0.553287 1.099781 2.127478 2.909290 9.409386 0.000000 0.000000 0.000000 2.224190 -0.045765 -0.724326 -8.450473 3.547229 3.672406 3.677014 -0.348467 1.167677 -1.788032 2.296573 -7.728111 0.000000 0.000000 0.000000 -20.449118 -20.842639 6.817115 -44.732902 -13.154213 0.423731 -76.933946 -61.678891 50.749963 0.000000 0.000000 0.000000 4.009461 28.283183 12.143474 20.405660 26.360756 1.447974 51.374806 73.518934 45.032369 0.000000 0.000000 0.000000 
0.134422 0.947738 0.279820 -1.002533 20.660352 6.566027 -2.334395 -0.857525 -8.944045 2.242394 -0.018959 -2.994626 -5.766086 -4.245858 9.182170 0.000000 0.000000 0.000000 1.616933 0.939159 -8.824460 -3.463793 0.548716 1.590503 1.750046 2.150989 9.120265 0.000000 0.000000 0.000000 2.410872 -0.049044 -0.733348 -8.584350 3.628667 3.571819 3.582733 -0.258826 1.198598 -2.011561 2.442266 -7.715110 0.000000 0.000000 0.000000 -20.734971 -20.839128 6.843922 -44.322370 -12.298258 0.124029 -77.533784 -61.333533 50.962595 0.000000 0.000000 0.000000 4.320937 28.656908 12.388408 19.710040 27.097429 1.448802 45.348424 73.168336 39.734216 0.000000 0.000000 0.000000 
0.133294 0.947153 0.278380 -0.964700 20.633128 6.382335 -2.539522 -0.816129 -8.577818 2.332637 -0.032338 -2.799855 -5.627578 -4.280090 8.801386 0.000000 0.000000 0.000000 1.612320 0.940915 -8.846575 -3.495892 0.566448 1.848951 1.522022 1.723218 8.892852 0.000000 0.000000 0.000000 2.443317 -0.051569 -0.671171 -8.465972 3.574290 3.763347 3.376098 -0.269296 0.986337 -1.595863 2.228286 -8.409623 0.000000 0.000000 0.000000 -21.066097 -20.814283 6.820538 -43.750490 -11.580503 -0.082388 -79.439103 -60.676940 51.854571 0.000000 0.000000 0.000000 4.327483 28.845766 12.477968 19.368808 28.051361 1.536863 35.133928 73.036473 31.515622 0.000000 0.000000 0.000000 
0.131968 0.946925 0.276660 -0.914991 21.083004 6.068787 -2.539157 -0.757150 -8.124054 2.351226 -0.019903 -3.091221 -5.802762 -4.389621 9.007355 0.000000 0.000000 0.000000 1.477259 0.895027 -8.427260 -3.577024 0.576131 1.776797 1.566873 1.874557 8.837064 0.000000 0.000000 0.000000 2.266607 -0.060829 -0.335298 -8.420126 3.537449 3.960454 3.289259 -0.203182 0.748629 -1.606322 2.291854 -8.857008 0.000000 0.000000 0.000000 -21.845164 -20.811055 6.722179 -43.413090 -11.243383 -0.116635 -79.613777 -60.662616 51.902136 0.000000 0.000000 0.000000 4.859129 29.139163 12.812175 19.118680 27.648796 1.429307 22.222506 72.805989 21.515570 0.000000 0.000000 0.000000 
0.130491 0.946357 0.274800 -0.992522 21.725839 5.840327 -2.216030 -0.668803 -7.492751 1.950302 0.002002 -3.148137 -5.743309 -4.688646 8.396290 0.000000 0.000000 0.000000 1.735358 0.871676 -7.971172 -3.882468 0.632461 1.981364 1.178605 1.221962 8.401941 0.000000 0.000000 0.000000 2.032554 -0.038630 -0.590908 -8.472720 3.514225 4.775898 3.316223 -0.204725 0.217349 -1.829804 2.418954 -8.643404 0.000000 0.000000 0.000000 -22.736488 -21.177369 6.861615 -42.272955 -10.245128 -0.338206 -81.969057 -61.176756 54.274913 0.000000 0.000000 0.000000 5.546994 29.998857 13.450813 17.906492 27.192858 1.176327 6.244326 70.660610 9.176487 0.000000 0.000000 0.000000 
0.129073 0.946033 0.273186 -0.983955 21.882964 5.712724 -1.762052 -0.639039 -7.295701 1.463256 0.018393 -3.000270 -5.810438 -5.059000 8.078107 0.000000 0.000000 0.000000 1.822127 0.855197 -7.724734 -3.902352 0.639707 2.055864 1.060986 1.020494 8.234244 0.000000 0.000000 0.000000 1.941836 -0.033303 -0.623656 -8.608469 3.556160 5.258983 3.254161 0.176027 -0.115194 -1.736218 2.370187 -8.629132 0.000000 0.000000 0.000000 -23.238295 -21.302375 6.786504 -42.232669 -10.256750 -0.240991 -84.029548 -61.582570 56.208288 0.000000 0.000000 0.000000 5.664771 30.510940 13.792418 16.968009 26.745434 0.985548 -4.649102 67.858328 1.445176 0.000000 0.000000 0.000000 
0.127844 0.945722 0.271906 -1.112531 22.813051 5.424099 -1.391319 -0.614239 -7.135249 1.084688 0.034179 -3.000742 -6.158237 -5.614626 8.079550 0.000000 0.000000 0.000000 1.991421 0.810151 -7.124280 -3.560567 0.580467 1.806938 0.659682 0.223169 8.478802 0.000000 0.000000 0.000000 1.881486 -0.029895 -0.625589 -8.271452 3.358327 5.347716 3.075078 0.467760 0.101924 -1.197623 1.996576 -8.009218 0.000000 0.000000 0.000000 -23.798032 -21.871227 6.820517 -42.394055 -10.460320 -0.069638 -85.104716 -62.173753 57.381944 0.000000 0.000000 0.000000 5.779611 30.536589 13.970345 16.150918 26.721828 0.846002 -10.512309 64.908319 -2.227650 0.000000 0.000000 0.000000 
0.126723 0.945686 0.270831 -1.297737 23.249235 5.457999 -0.764784 -0.630452 -7.329708 0.777082 0.037548 -2.716103 -6.173942 -5.877740 7.763469 0.000000 0.000000 0.000000 2.142062 0.823916 -7.175347 -3.425551 0.567788 1.950315 0.599368 0.139090 8.485881 0.000000 0.000000 0.000000 1.712896 -0.014874 -0.872914 -8.279434 3.333260 5.513042 3.171607 0.544598 -0.124987 -0.650172 1.639395 -8.001945 0.000000 0.000000 0.000000 -24.655895 -21.798521 6.668370 -42.781064 -10.949220 0.187260 -84.332424 -62.965231 57.400401 0.000000 0.000000 0.000000 6.299036 30.771489 14.302171 15.782204 25.915388 0.689640 -16.152374 61.827068 -5.417011 0.000000 0.000000 0.000000 
0.125823 0.945934 0.269770 -1.410858 23.656442 5.274829 -0.330088 -0.596866 -7.041501 0.486397 0.045341 -2.603004 -6.136088 -6.129018 7.342768 0.000000 0.000000 0.000000 2.599535 0.813355 -6.787536 -3.544115 0.577048 1.743944 0.600577 0.209642 8.309205 0.000000 0.000000 0.000000 1.634482 -0.017566 -0.744500 -8.233984 3.292044 5.647880 2.965993 0.650363 -0.047796 -0.831442 1.780080 -8.006007 0.000000 0.000000 0.000000 -25.112570 -22.132618 6.740780 -42.795233 -11.059439 0.283533 -84.627774 -63.784918 58.362412 0.000000 0.000000 0.000000 6.586551 30.667001 14.410130 15.495154 25.346145 0.572677 -19.599576 59.052403 -7.007626 0.000000 0.000000 0.000000 
0.124829 0.946204 0.268789 -1.329497 23.873731 5.089608 -0.225189 -0.558775 -6.677846 0.303094 0.054689 -2.702488 -6.288641 -6.264289 7.497851 0.000000 0.000000 0.000000 2.753595 0.780722 -6.375732 -3.521958 0.567502 1.590604 0.709380 0.437050 8.454934 0.000000 0.000000 0.000000 1.523923 -0.035607 -0.251873 -8.198781 3.285030 5.366863 2.614632 0.731343 0.370814 -0.804794 1.830232 -8.351889 0.000000 0.000000 0.000000 -25.246082 -22.186906 6.649479 -43.276513 -11.581129 0.475331 -81.873794 -64.630263 56.729483 0.000000 0.000000 0.000000 6.621581 30.598996 14.440542 15.297858 24.759201 0.470733 -23.759990 57.161582 -8.912644 0.000000 0.000000 0.000000 
0.123770 0.945831 0.267688 -1.338098 24.104396 4.792109 0.142211 -0.517833 -6.245673 0.058850 0.065730 -2.815204 -6.115896 -5.717493 7.721811 0.000000 0.000000 0.000000 3.060167 0.808011 -6.475834 -3.350961 0.548450 1.701009 0.605481 0.260384 8.306668 0.000000 0.000000 0.000000 1.412675 -0.047193 0.107555 -8.176604 3.270780 5.327119 2.283719 0.867905 0.675717 -1.095140 2.009142 -8.039776 0.000000 0.000000 0.000000 -25.435325 -22.413839 6.644950 -43.820657 -11.964300 0.643615 -78.075819 -65.269434 54.018856 0.000000 0.000000 0.000000 6.823610 29.984588 14.264367 14.195397 23.993150 0.243954 -25.592067 56.106612 -9.642618 0.000000 0.000000 0.000000 
0.122463 0.945703 0.266342 -1.500715 24.463277 4.670625 0.355656 -0.532971 -6.385265 0.106264 0.061145 -2.732063 -6.095398 -5.362540 8.055286 0.000000 0.000000 0.000000 3.499280 0.822832 -6.395302 -2.958451 0.484108 1.548561 0.138666 -0.727065 8.565809 0.000000 0.000000 0.000000 1.226840 -0.056382 0.433103 -7.941243 3.159645 5.069485 2.138613 0.530423 1.125375 -0.792785 1.833005 -8.178436 0.000000 0.000000 0.000000 -25.151437 -22.428679 6.679315 -44.458868 -13.004059 0.958053 -73.802951 -65.743940 50.957012 0.000000 0.000000 0.000000 5.995809 29.786861 13.863431 13.734435 23.037872 0.118754 -24.463533 56.865408 -9.190952 0.000000 0.000000 0.000000 
0.121103 0.945485 0.264743 -1.630514 24.766388 4.796432 0.495119 -0.556457 -6.618860 0.362977 0.055389 -2.905019 -6.453652 -5.704896 8.405144 0.000000 0.000000 0.000000 3.686427 0.829909 -6.377551 -2.748689 0.453077 1.563475 -0.167654 -1.310768 8.257420 0.000000 0.000000 0.000000 1.168200 -0.064162 0.621620 -7.805888 3.103448 4.676028 1.829609 0.588432 1.851413 -0.844722 1.973564 -8.732231 0.000000 0.000000 0.000000 -24.804465 -22.905147 6.837038 -44.868934 -14.348291 1.420701 -68.772105 -66.088746 47.119562 0.000000 0.000000 0.000000 5.253493 29.470159 13.512734 13.755227 21.905007 0.022373 -23.664124 57.759362 -8.855602 0.000000 0.000000 0.000000 
0.119769 0.945097 0.263225 -1.542177 24.620525 5.005979 0.586123 -0.552672 -6.572810 0.252869 0.064498 -3.124389 -6.315276 -5.696377 8.135905 0.000000 0.000000 0.000000 3.511582 0.830278 -6.472463 -2.625483 0.431476 1.504301 -0.193327 -1.325426 7.687334 0.000000 0.000000 0.000000 0.950387 -0.064194 0.755955 -7.710951 3.068669 4.588557 1.633191 0.581150 1.828767 -1.034447 2.142030 -9.127487 0.000000 0.000000 0.000000 -24.859376 -23.055955 6.944694 -44.643741 -14.243728 1.388442 -65.789626 -66.310396 45.012406 0.000000 0.000000 0.000000 5.472463 29.514104 13.605384 13.005575 21.098957 -0.113911 -20.538237 57.927508 -7.261330 0.000000 0.000000 0.000000 
0.118398 0.945353 0.261579 -1.703691 24.748207 4.843970 0.636793 -0.542581 -6.464775 0.385207 0.061467 -3.194054 -6.604904 -5.900406 8.516047 0.000000 0.000000 0.000000 3.542025 0.806985 -6.232145 -2.079763 0.336857 1.178857 -0.526666 -2.044278 7.679104 0.000000 0.000000 0.000000 0.786734 -0.079795 1.221671 -7.645492 3.018137 4.890708 1.433970 0.505360 1.817279 -0.950640 2.096615 -9.226072 0.000000 0.000000 0.000000 -25.078003 -23.279309 7.097581 -44.219558 -14.428706 1.456897 -64.610235 -66.702022 44.465340 0.000000 0.000000 0.000000 5.905912 29.465185 13.721836 12.255084 20.320413 -0.238180 -17.948798 57.976238 -5.943830 0.000000 0.000000 0.000000 
0.117309 0.945206 0.260164 -1.670879 24.836555 4.498707 0.638601 -0.496788 -5.976645 0.365972 0.066104 -3.385019 -6.768286 -6.149012 8.562581 0.000000 0.000000 0.000000 3.519809 0.763206 -5.826626 -2.034578 0.323761 0.993346 -0.776158 -2.580061 7.593149 0.000000 0.000000 0.000000 0.519368 -0.084584 1.558674 -7.769932 3.066398 5.120259 1.259742 0.708492 2.197956 -1.023916 2.216025 -9.621149 0.000000 0.000000 0.000000 -25.241980 -23.313945 7.013345 -44.086537 -14.492239 1.491604 -64.224825 -66.237761 43.737884 0.000000 0.000000 0.000000 5.837836 28.928388 13.470483 12.373854 20.002612 -0.258952 -18.136412 58.696532 -6.085469 0.000000 0.000000 0.000000 
0.116349 0.945371 0.259107 -1.812705 25.052476 4.501579 0.867069 -0.485326 -5.816348 0.240538 0.075777 -3.735489 -6.871600 -6.082986 8.841418 0.000000 0.000000 0.000000 3.487369 0.776977 -5.957861 -2.214139 0.358325 1.193277 -0.859212 -2.722439 7.327529 0.000000 0.000000 0.000000 0.181211 -0.067082 1.431083 -7.649014 2.991439 5.292551 0.968599 0.912717 2.128017 -1.228167 2.403497 -9.928961 0.000000 0.000000 0.000000 -25.826063 -23.492044 6.970843 -43.536647 -13.641193 1.274324 -65.119453 -65.480718 43.763308 0.000000 0.000000 0.000000 6.491096 28.962378 13.770456 12.240615 19.541899 -0.313291 -18.053901 60.837102 -6.292107 0.000000 0.000000 0.000000 
